<?xml version="1.0" encoding="UTF-8"?>
<svg width="26px" height="26px" viewBox="0 0 26 26" version="1.1" xmlns="http://www.w3.org/2000/svg" xmlns:xlink="http://www.w3.org/1999/xlink">
    <!-- Generator: Sketch 58 (84663) - https://sketch.com -->
    <title>copyright</title>
    <desc>Created with Sketch.</desc>
    <g id="Page-1" stroke="none" stroke-width="1" fill="none" fill-rule="evenodd">
        <g id="Desktop-HD" transform="translate(-49.000000, -3734.000000)" fill="#064B76" fill-rule="nonzero">
            <g id="copyright" transform="translate(49.000000, 3734.000000)">
                <path d="M13,26 C9.52763368,26 6.2629547,24.6477509 3.80760194,22.1923981 C1.35224913,19.7370453 0,16.4723663 0,13 C0,9.52763368 1.35224913,6.2629547 3.80760194,3.80760194 C6.2629547,1.35224913 9.52763368,0 13,0 C16.4723663,0 19.7370453,1.35224913 22.1923981,3.80760194 C24.6477509,6.2629547 26,9.52763368 26,13 C26,16.4723663 24.6477509,19.7370453 22.1923981,22.1923981 C19.7370453,24.6477509 16.4723663,26 13,26 Z M13,2.03125 C6.9518738,2.03125 2.03125,6.9518738 2.03125,13 C2.03125,19.0481262 6.9518738,23.96875 13,23.96875 C19.0481262,23.96875 23.96875,19.0481262 23.96875,13 C23.96875,6.9518738 19.0481262,2.03125 13,2.03125 Z M18.3502808,18.3502808 L16.9139252,16.9139252 C14.7557221,19.0721283 11.2442779,19.0721283 9.08607482,16.9139252 C6.92787169,14.7557221 6.92787169,11.2442779 9.08607482,9.08607482 C11.2442779,6.92787169 14.7557221,6.92787169 16.9139252,9.08607482 L18.3502808,7.64971924 C15.4000092,4.699646 10.5997925,4.699646 7.64971924,7.64971924 C4.699646,10.5999908 4.699646,15.4002075 7.64971924,18.3502808 C9.12475586,19.8253174 11.0623779,20.5628357 13,20.5628357 C14.9374237,20.5628357 16.8752441,19.8253174 18.3502808,18.3502808 Z" id="Shape"></path>
            </g>
        </g>
    </g>
</svg>