<?xml version="1.0" encoding="UTF-8"?>
<svg width="201px" height="92px" viewBox="0 0 201 92" version="1.1" xmlns="http://www.w3.org/2000/svg" xmlns:xlink="http://www.w3.org/1999/xlink">
    <!-- Generator: Sketch 58 (84663) - https://sketch.com -->
    <title>Group 2</title>
    <desc>Created with Sketch.</desc>
    <g id="Page-1" stroke="none" stroke-width="1" fill="none" fill-rule="evenodd">
        <g id="Desktop-HD" transform="translate(-23.000000, -12.000000)">
            <g id="Group-2" transform="translate(23.000000, 12.000000)">
                <g stroke-width="1" id="Path">
                    <path d="M24.1645763,54.2670571 C26.3291525,54.2670571 28.7118644,54.4791226 30.8870056,54.880176 L30.8870056,48.3407602 L46.7344633,48.3407602 L46.7344633,60.0118507 C48.5988701,60.6988808 49.9601977,61.4398628 51.2382486,62.3717038 C53.6610452,64.1380852 54.9925424,66.4567726 55.0724011,69 C58.1564407,68.2686857 60.9850565,67.0287259 63.4327119,65.3396861 C64.3170621,64.7296857 65.3785311,64.1957795 66,63.7376555 L66,45.5739284 L38.7370904,15 L11,45.7582383 L11,56.7504072 C12.8644068,56.2760664 14.5635028,55.7661735 16.5329379,55.2272775 C18.8622034,54.5901452 21.4472034,54.2670571 24.1645763,54.2670571 Z" fill="#064B76" fill-rule="nonzero"></path>
                    <polygon fill="#000000" fill-rule="nonzero" points="38.7262395 7.80926847 69.8919935 42 77 42 38.6637094 0 22.8071455 17.1444186 22.8071455 10.2236538 11.1809467 10.2236538 11.1809467 29.7568515 0 42 7.20918588 42"></polygon>
                    <path d="M73.1802608,67.2534634 C71.4642664,67.2534634 69.1542017,67.9974084 66.2185207,69.9673381 C60.8518995,73.5684586 54.282458,75.1542199 48.2799132,75.1542199 C43.4002296,75.1542199 38.8956661,74.106904 35.714486,72.2436877 C34.1384197,71.3204642 34.1431048,71.0122149 35.0573232,71.0122149 C36.8932561,71.0122149 42.3985561,72.2558835 46.1294542,72.2558835 C47.9653871,72.2558835 49.3712282,71.9549517 49.7001219,71.0564247 C51.2202793,66.9013091 45.3270534,65.5634278 39.1649029,63.1291423 C34.6534679,61.3461135 29.1472309,60 23.9036716,60 C21.7176058,60 19.5577766,60.2338548 17.5531803,60.7674219 C8.45128831,63.1898165 1.87403836,65.0146159 0,65.6070278 L0,88.925434 C3.74807671,87.5799303 8.08959891,86.2905273 10.5602061,86.2905273 C15.0941296,86.2905273 33.4400281,92 43.8275104,92 C45.2823888,92 46.5851578,91.8881034 47.6686643,91.6329058 C56.4850778,89.5553481 71.7912861,77.3866646 75.9457168,73.2321589 C77.9403182,71.2375326 77.1513481,67.2534634 73.1802608,67.2534634 Z" fill="#000000" fill-rule="nonzero"></path>
                </g>
                <text id="HOME" stroke="#000000" stroke-width="3" fill="#000000" font-family="STHeitiSC-Medium, Heiti SC" font-size="31" font-weight="bold" letter-spacing="0.826666667">
                    <tspan x="83" y="64">HOME</tspan>
                </text>
                <text id="y" stroke="#000000" stroke-width="3" fill="#000000" font-family="STHeitiSC-Medium, Heiti SC" font-size="31" font-weight="bold" letter-spacing="0.826666667">
                    <tspan x="183" y="68">y</tspan>
                </text>
            </g>
        </g>
    </g>
</svg>