<?xml version="1.0" encoding="UTF-8"?>
<svg width="190px" height="179px" viewBox="0 0 190 179" version="1.1" xmlns="http://www.w3.org/2000/svg" xmlns:xlink="http://www.w3.org/1999/xlink">
    <!-- Generator: Sketch 58 (84663) - https://sketch.com -->
    <title>houses</title>
    <desc>Created with Sketch.</desc>
    <g id="Page-1" stroke="none" stroke-width="1" fill="none" fill-rule="evenodd">
        <g id="Desktop-HD" transform="translate(-624.000000, -1361.000000)" fill="#064B76" fill-rule="nonzero" stroke="#064B76" stroke-width="3">
            <g id="houses" transform="translate(626.000000, 1363.000000)">
                <path d="M164,40.4624277 C151.868489,40.4624277 142,31.3873587 142,20.2312139 C142,9.07506908 151.868489,0 164,0 C176.131511,0 186,9.07506908 186,20.2312139 C186,31.3873587 176.131511,40.4624277 164,40.4624277 Z M164,6.74373796 C155.913281,6.74373796 149.333333,12.794662 149.333333,20.2312139 C149.333333,27.6677657 155.913281,33.7186898 164,33.7186898 C172.086719,33.7186898 178.666667,27.6677657 178.666667,20.2312139 C178.666667,12.794662 172.086719,6.74373796 164,6.74373796 Z" id="Shape"></path>
                <path d="M98.1967561,36.416185 L3.66715821,36.416185 C1.64162611,36.416185 0,34.9381465 0,33.1173374 C0,21.7144068 10.5044027,12.4595927 23.2563726,12.8100953 C28.6310513,4.8542028 38.1341478,0 48.6170635,0 C57.2062357,0 65.3943123,3.39033917 71.0067832,9.17234286 C72.9678533,8.73421433 74.9847903,8.51386187 77.0318097,8.51386187 C90.7994101,8.51386187 102,18.5895216 102,30.9730864 C102,31.7887779 101.945566,32.6328191 101.840995,33.4820147 C101.633284,35.1533449 100.064715,36.416185 98.1967561,36.416185 L98.1967561,36.416185 Z M7.77981893,29.8184897 L94.6184117,29.8184897 C93.9580368,21.6087404 86.3228987,15.1115571 77.0318097,15.1115571 C74.941816,15.1115571 72.8976617,15.4362874 70.9566466,16.0767277 C69.4181589,16.5857296 67.689151,16.1115203 66.726522,14.9182651 C62.5236151,9.7084056 55.753697,6.59769522 48.6170635,6.59769522 C40.0823256,6.59769522 32.4113755,10.8720223 28.5952389,17.7519237 C27.8890246,19.0250727 26.3534021,19.7466956 24.7891299,19.5443836 C24.0499683,19.4477376 23.307942,19.3987705 22.5845378,19.3987705 C15.4393089,19.3987705 9.42574258,23.8419058 7.77981893,29.8184897 Z" id="Shape"></path>
                <path d="M162.996484,160.83815 C162.801953,160.83815 162.607422,160.81681 162.411719,160.7765 C162.219531,160.740932 162.030859,160.682837 161.851562,160.606959 C161.671094,160.531081 161.496484,160.437419 161.334766,160.328344 C161.169531,160.215712 161.017187,160.087668 160.878906,159.948953 C160.738281,159.809053 160.615234,159.65374 160.503906,159.486571 C160.396094,159.322958 160.303516,159.14749 160.228516,158.964908 C160.153516,158.779955 160.096094,158.589074 160.057422,158.397008 C160.017578,158.200198 160,157.999833 160,157.803024 C160,157.605029 160.017578,157.404663 160.057422,157.210226 C160.096094,157.016973 160.153516,156.824907 160.228516,156.643511 C160.303516,156.458557 160.396094,156.281904 160.503906,156.118291 C160.611719,155.951122 160.738281,155.796995 160.876563,155.657094 C161.013672,155.517194 161.169531,155.38915 161.332422,155.280075 C161.496484,155.171 161.671094,155.077338 161.851562,155.00146 C162.030859,154.925581 162.219531,154.867487 162.411719,154.828362 C162.798438,154.748927 163.198047,154.748927 163.584766,154.828362 C163.776953,154.867487 163.965625,154.925581 164.146094,155.00146 C164.326562,155.077338 164.5,155.171 164.665234,155.280075 C164.826953,155.38915 164.982812,155.517194 165.121094,155.657094 C165.259375,155.796995 165.384766,155.951122 165.492578,156.118291 C165.601562,156.281904 165.694141,156.458557 165.769141,156.643511 C165.844141,156.826092 165.901562,157.016973 165.940234,157.210226 C165.978906,157.404663 166,157.605029 166,157.803024 C166,157.999833 165.978906,158.200198 165.940234,158.397008 C165.901563,158.589074 165.844141,158.779955 165.769141,158.964908 C165.694141,159.14749 165.601562,159.322958 165.492578,159.486571 C165.384766,159.65374 165.259375,159.809053 165.121094,159.948953 C164.982812,160.087668 164.826953,160.215712 164.665234,160.328344 C164.5,160.437419 164.326562,160.531081 164.146094,160.606959 C163.965625,160.682837 163.776953,160.740932 163.584766,160.7765 C163.390234,160.81681 163.194531,160.83815 162.996484,160.83815 L162.996484,160.83815 Z" id="Path"></path>
                <path d="M182.367187,138.644083 L175.636551,138.644083 L175.636551,100.726959 L176.724976,101.475647 C177.360718,101.913158 178.115662,102.136567 178.876282,102.136567 C179.435394,102.136567 179.998764,102.015554 180.516724,101.769537 C181.738541,101.189736 182.509094,100.015506 182.509094,98.732231 L182.509094,80.0908309 C182.509094,79.0070285 181.958496,77.9883871 181.026169,77.3460849 L131.346039,43.1458043 C130.06604,42.2654641 128.323425,42.2654641 127.043427,43.1458043 L105.215332,58.172757 L95.1513062,51.2444008 C93.8713076,50.3627311 92.1286924,50.3627311 90.8486938,51.2444008 L80.783249,58.172757 L58.9551543,43.1458043 C57.6765747,42.2654641 55.93396,42.2654641 54.653961,43.1458043 L4.97241211,77.3474146 C4.04150391,77.9883871 3.49090576,79.0070285 3.49090576,80.0908309 L3.49090576,98.732231 C3.49090576,100.015506 4.26145944,101.191066 5.48327637,101.769537 C6.00123587,102.015554 6.56318655,102.136567 7.12371826,102.136567 C7.8829194,102.136567 8.63928223,101.914487 9.27360544,101.476977 L10.3634492,100.726959 L10.3634492,138.644083 L3.6328125,138.644083 C1.62625104,138.644083 0,140.168056 0,142.048419 L0,171.595664 C0,173.476028 1.62625104,175 3.6328125,175 L182.367187,175 C184.373749,175 186,173.476028 186,171.595664 L186,142.048419 C186,140.168056 184.373749,138.644083 182.367187,138.644083 Z M168.370926,95.7255107 L168.372345,138.644083 L139.443237,138.644083 L139.441818,108.824226 L140.531662,109.574244 C140.55011,109.587542 140.568558,109.59951 140.587006,109.612809 C140.594101,109.616798 140.599777,109.619458 140.605454,109.623447 C140.618225,109.632756 140.630997,109.640735 140.645187,109.648714 C140.652283,109.654033 140.659378,109.658022 140.666474,109.663342 C140.677826,109.669991 140.689179,109.67797 140.70195,109.684619 C140.709045,109.689938 140.71756,109.695257 140.726074,109.699247 C140.737427,109.707226 140.750198,109.713875 140.76297,109.721854 C140.768646,109.725843 140.775742,109.729833 140.782837,109.732492 C140.795608,109.740471 140.809799,109.74845 140.82399,109.756429 C140.829666,109.759089 140.836762,109.763078 140.842438,109.767067 C140.859467,109.775046 140.875076,109.784355 140.892105,109.793664 C140.894943,109.794994 140.8992,109.797653 140.902039,109.798983 C140.943191,109.82026 140.984345,109.841537 141.026917,109.861485 C141.029755,109.862814 141.031174,109.862814 141.034012,109.864144 C141.051041,109.873453 141.069488,109.881432 141.087936,109.889411 C141.092193,109.892071 141.09787,109.89473 141.102127,109.89606 C141.117737,109.904039 141.134766,109.910688 141.151794,109.917337 C141.156052,109.919997 141.160309,109.921327 141.164566,109.923986 C141.183014,109.930635 141.200043,109.938614 141.217071,109.946593 C141.221329,109.947923 141.224167,109.949253 141.227005,109.950583 C142.061417,110.292346 143.007935,110.328251 143.873565,110.04633 C143.876404,110.045 143.876404,110.045 143.877823,110.045 C143.940262,110.023723 144.001282,110.002446 144.062302,109.978509 C144.067978,109.975849 144.073654,109.974519 144.079331,109.97186 C144.090683,109.96787 144.102036,109.963881 144.113388,109.958561 C144.120483,109.955902 144.127579,109.953242 144.134674,109.950583 C144.144607,109.946593 144.153122,109.942604 144.163056,109.938614 C144.172989,109.934625 144.181503,109.930635 144.191437,109.926646 C144.199951,109.923986 144.208466,109.919997 144.21698,109.916007 C144.226914,109.912018 144.238266,109.906699 144.249619,109.901379 C144.256714,109.89872 144.26239,109.89606 144.269485,109.892071 C144.287934,109.884091 144.304962,109.876113 144.321991,109.868134 C145.543808,109.288333 146.314361,108.114103 146.314361,106.830827 L146.314361,88.1880977 C146.314361,87.1042952 145.763764,86.0856539 144.832855,85.4446813 L124.89212,71.7182917 L129.194732,68.7567851 L168.370926,95.7255107 Z M101.236267,153.41704 L84.7637329,153.41704 L84.7637329,133.109377 L101.236267,133.109377 L101.236267,153.41704 Z M104.86908,126.300705 L81.1309204,126.300705 C79.1257783,126.300705 77.4981079,127.826007 77.4981079,129.705041 L77.4981079,153.41704 L53.8238067,153.41704 L53.8238067,103.822777 L93,76.8540518 L132.176193,103.822777 L132.177612,153.41704 L108.501892,153.41704 L108.501892,129.705041 C108.501892,127.826007 106.874222,126.300705 104.86908,126.300705 L104.86908,126.300705 Z M129.194732,50.1140549 L175.243469,81.8142761 L175.243469,92.0073373 L131.346039,61.7872044 C130.166794,60.9760151 128.593048,60.9121837 127.352783,61.5970405 C127.246353,61.6555526 127.14418,61.7193839 127.044846,61.7872044 L118.756073,67.493457 L111.352798,62.3962616 L129.194732,50.1140549 Z M93,58.2113216 L139.048736,89.9115429 L139.048736,100.104604 L137.960312,99.3545862 L95.1513062,69.8858011 C95.0505523,69.8166506 94.9483794,69.7528193 94.8433686,69.695637 C93.7066954,69.0679625 92.2933046,69.0679625 91.1580507,69.695637 C91.0516206,69.754149 90.9494477,69.8166506 90.8486938,69.8858011 L48.039688,99.3545862 L46.9512636,100.104604 L46.9512636,89.9115429 L93,58.2113216 Z M10.7565308,81.8142761 L56.8052675,50.1140549 L74.6472016,62.3962616 L67.2439268,67.493457 L58.9551543,61.7885344 C57.6765747,60.9068645 55.93396,60.9068645 54.653961,61.7885344 L10.7565308,92.0073373 L10.7565308,81.8142761 Z M17.6290742,95.7255107 L56.8052675,68.755455 L61.1078798,71.7182917 L41.1671446,85.4446813 C41.1529541,85.4539902 41.1387636,85.4646287 41.1245728,85.4739375 C40.3767242,86.0058651 39.8828887,86.7811492 39.7338867,87.6362228 C39.7282104,87.6694682 39.7225342,87.7027135 39.7182769,87.7359593 C39.7140196,87.7692046 39.7097627,87.80245 39.7055054,87.8356958 C39.6927339,87.9513897 39.6856386,88.0697439 39.6856386,88.1880977 L39.6856386,106.830827 C39.6856386,108.114103 40.4561919,109.288333 41.6780089,109.868134 C41.696457,109.876113 41.7163238,109.885422 41.7347715,109.89473 C42.1477202,110.080905 42.584793,110.18995 43.027542,110.223195 C43.8832397,110.288356 44.753128,110.067607 45.4697569,109.574244 L46.5581817,108.824226 L46.5581817,138.644083 L17.6304932,138.644083 L17.6290742,95.7255107 Z M46.5581817,145.452756 L46.5581817,153.41704 L7.265625,153.41704 L7.265625,145.452756 L46.5581817,145.452756 Z M178.734375,168.191328 L7.265625,168.191328 L7.265625,160.225713 L147.855469,160.225713 C149.86203,160.225713 151.488281,158.701741 151.488281,156.821377 C151.488281,154.942343 149.86203,153.41704 147.855469,153.41704 L139.443237,153.41704 L139.443237,145.452756 L178.734375,145.452756 L178.734375,168.191328 Z" id="Shape"></path>
                <path d="M93.5,121.387283 C84.9538726,121.387283 78,114.580993 78,106.213188 C78,97.8467526 84.9538726,91.0404624 93.5,91.0404624 C102.046127,91.0404624 109,97.8467526 109,106.213188 C109,114.580993 102.046127,121.387283 93.5,121.387283 L93.5,121.387283 Z M93.5,98.052215 C88.9037283,98.052215 85.1637479,101.713558 85.1637479,106.213188 C85.1637479,110.712818 88.9037283,114.374161 93.5,114.374161 C98.0962717,114.374161 101.836252,110.712818 101.836252,106.213188 C101.836252,101.713558 98.0962717,98.052215 93.5,98.052215 Z" id="Shape"></path>
            </g>
        </g>
    </g>
</svg>