<?xml version="1.0" encoding="UTF-8"?>
<svg width="177px" height="179px" viewBox="0 0 177 179" version="1.1" xmlns="http://www.w3.org/2000/svg" xmlns:xlink="http://www.w3.org/1999/xlink">
    <!-- Generator: Sketch 58 (84663) - https://sketch.com -->
    <title>newspaper</title>
    <desc>Created with Sketch.</desc>
    <g id="Page-1" stroke="none" stroke-width="1" fill="none" fill-rule="evenodd">
        <g id="Desktop-HD" transform="translate(-265.000000, -1361.000000)" fill="#064B76" fill-rule="nonzero" stroke="#064B76">
            <g id="newspaper" transform="translate(267.000000, 1363.000000)">
                <path d="M90,46.5317919 L48,46.5317919 L48,88.0057803 L90,88.0057803 L90,46.5317919 Z M84,82.0809249 L54,82.0809249 L54,52.4566474 L84,52.4566474 L84,82.0809249 Z" id="Shape" stroke-width="3"></path>
                <path d="M152,46.5317919 L104,46.5317919 C102.341,46.5317919 101,47.8882948 101,49.566474 C101,51.2446532 102.341,52.6011561 104,52.6011561 L152,52.6011561 C153.659,52.6011561 155,51.2446532 155,49.566474 C155,47.8882948 153.659,46.5317919 152,46.5317919 Z" id="Path" stroke-width="3"></path>
                <path d="M152,64.7398844 L104,64.7398844 C102.341,64.7398844 101,66.0963873 101,67.7745665 C101,69.4527457 102.341,70.8092486 104,70.8092486 L152,70.8092486 C153.659,70.8092486 155,69.4527457 155,67.7745665 C155,66.0963873 153.659,64.7398844 152,64.7398844 Z" id="Path" stroke-width="3"></path>
                <path d="M152,80.9248555 L104,80.9248555 C102.341,80.9248555 101,82.2813584 101,83.9595376 C101,85.6377168 102.341,86.9942197 104,86.9942197 L152,86.9942197 C153.659,86.9942197 155,85.6377168 155,83.9595376 C155,82.2813584 153.659,80.9248555 152,80.9248555 Z" id="Path" stroke-width="3"></path>
                <path d="M152,98.1213873 L53,98.1213873 C51.341,98.1213873 50,99.4778902 50,101.156069 C50,102.834249 51.341,104.190751 53,104.190751 L152,104.190751 C153.659,104.190751 155,102.834249 155,101.156069 C155,99.4778902 153.659,98.1213873 152,98.1213873 Z" id="Path" stroke-width="3"></path>
                <path d="M98.0588235,116.32948 L53.9411765,116.32948 C52.3147059,116.32948 51,117.685983 51,119.364162 C51,121.042341 52.3147059,122.398844 53.9411765,122.398844 L98.0588235,122.398844 C99.6852941,122.398844 101,121.042341 101,119.364162 C101,117.685983 99.6852941,116.32948 98.0588235,116.32948 Z" id="Path" stroke-width="3"></path>
                <path d="M98.0588235,133.526012 L53.9411765,133.526012 C52.3147059,133.526012 51,134.882514 51,136.560694 C51,138.238873 52.3147059,139.595376 53.9411765,139.595376 L98.0588235,139.595376 C99.6852941,139.595376 101,138.238873 101,136.560694 C101,134.882514 99.6852941,133.526012 98.0588235,133.526012 Z" id="Path" stroke-width="3"></path>
                <path d="M98.0588235,151.734104 L53.9411765,151.734104 C52.3147059,151.734104 51,153.090607 51,154.768786 C51,156.446965 52.3147059,157.803468 53.9411765,157.803468 L98.0588235,157.803468 C99.6852941,157.803468 101,156.446965 101,154.768786 C101,153.090607 99.6852941,151.734104 98.0588235,151.734104 Z" id="Path" stroke-width="3"></path>
                <path d="M113,157.803468 L155,157.803468 L155,116.32948 L113,116.32948 L113,157.803468 Z M119,122.254335 L149,122.254335 L149,151.878613 L119,151.878613 L119,122.254335 Z" id="Shape" stroke-width="3"></path>
                <path d="M173,37.9166667 C173,37.8670833 172.973155,37.82625 172.970172,37.7766667 L172.970172,0 L29.8275862,0 L29.8275862,87.5 L0,87.5 L0,157.5 C0,167.15125 8.02660345,175 17.8965517,175 L155.103448,175 C164.9555,175 172.970172,167.16 172.970172,157.529167 L172.970172,38.0566667 C172.973155,38.0070833 173,37.96625 173,37.9166667 Z M167.004655,5.83333333 L167.004655,35 L35.7931034,35 L35.7931034,5.83333333 L167.004655,5.83333333 Z M5.96551724,157.5 L5.96551724,93.3333333 L29.8275862,93.3333333 L29.8275862,157.5 C29.8275862,163.934167 24.4765172,169.166667 17.8965517,169.166667 C11.3165862,169.166667 5.96551724,163.934167 5.96551724,157.5 Z M155.103448,169.166667 L31.2265,169.166667 C31.2742241,169.114167 31.3070345,169.052917 31.3517759,169.000417 C31.9602586,168.320833 32.5150517,167.594583 33.0101897,166.8275 C33.0907241,166.705 33.1652931,166.5825 33.2428448,166.454167 C33.7260517,165.666667 34.1525862,164.844167 34.5045517,163.980833 C34.5522759,163.86125 34.5940345,163.741667 34.6387759,163.622083 C34.9817931,162.729583 35.2621724,161.807917 35.453069,160.854167 C35.4709655,160.766667 35.476931,160.67625 35.4948276,160.591667 C35.6797586,159.588333 35.7931034,158.555833 35.7931034,157.5 L35.7931034,87.5 L35.7931034,40.8333333 L167.004655,40.8333333 L167.004655,157.529167 C167.004655,163.945833 161.665517,169.166667 155.103448,169.166667 Z" id="Shape" stroke-width="3"></path>
                <path d="M138,11.1271676 L66,11.1271676 L66,29.3352601 L138,29.3352601 L138,11.1271676 Z M132,23.265896 L72,23.265896 L72,17.1965318 L132,17.1965318 L132,23.265896 Z" id="Shape" stroke-width="2"></path>
            </g>
        </g>
    </g>
</svg>