<?xml version="1.0" encoding="UTF-8"?>
<svg width="287px" height="175px" viewBox="0 0 287 175" version="1.1" xmlns="http://www.w3.org/2000/svg" xmlns:xlink="http://www.w3.org/1999/xlink">
    <!-- Generator: Sketch 58 (84663) - https://sketch.com -->
    <title>group</title>
    <desc>Created with Sketch.</desc>
    <g id="Page-1" stroke="none" stroke-width="1" fill="none" fill-rule="evenodd">
        <g id="Desktop-HD" transform="translate(-943.000000, -1363.000000)" fill-rule="nonzero">
            <g id="group" transform="translate(943.000000, 1363.000000)">
                <path d="M193.853236,98.5868925 L169.469788,88.2405862 C167.747135,87.5098816 166.63488,85.8748768 166.63488,84.0758907 L166.63488,77.6832942 C174.825732,71.4525424 180.09048,61.8577721 180.09048,51.1055187 L180.09048,42.1068495 C182.788873,40.6833644 184.575307,37.9325395 184.575307,34.8516157 L184.575307,33.9782956 C184.575307,15.2427746 168.609301,0 148.984827,0 L140.015173,0 C120.390699,0 104.424693,15.2427746 104.424693,33.9782956 L104.424693,41.9022736 C104.424693,44.6103672 105.645488,47.0636757 107.773207,48.6335153 C108.134075,48.8995174 108.513965,49.1334711 108.90952,49.3359104 L108.90952,51.1049846 C108.90952,61.8572379 114.173709,71.4520082 122.364001,77.6822259 L122.364001,84.0753566 C122.364001,85.8743426 121.251186,87.5093475 119.529093,88.240052 L95.145645,98.5863584 C87.1601244,101.974413 82,109.554939 82,117.897683 L82,170.99341 C82,173.205821 83.8787485,175 86.1961328,175 C88.5135171,175 90.3922657,173.205821 90.3922657,170.99341 L90.3922657,117.898217 C90.3922657,117.434049 90.4269537,116.975222 90.4773073,116.520134 L101.712873,127.246749 C103.461261,128.916473 104.424693,131.135827 104.424693,133.497264 L104.424693,170.993944 C104.424693,173.206355 106.303442,175 108.620826,175 C110.938211,175 112.816959,173.206355 112.816959,170.993944 L112.816959,133.497264 C112.816959,128.99606 110.981291,124.764597 107.647323,121.581652 L94.2527079,108.793254 C95.4595157,107.597847 96.9074613,106.607016 98.5545833,105.907826 L122.52681,95.7361833 L140.304427,112.708506 L140.304427,170.99341 C140.304427,173.205821 142.183175,175 144.500559,175 C146.817944,175 148.696692,173.205821 148.696692,170.99341 L148.696692,112.70904 L166.474308,95.7367174 L190.445976,105.907826 C192.093098,106.607016 193.541044,107.597847 194.747852,108.793788 L181.353236,121.581652 C178.019269,124.764597 176.1836,128.99606 176.1836,133.497264 L176.1836,170.993944 C176.1836,173.206355 178.062349,175 180.379733,175 C182.697118,175 184.575866,173.206355 184.575866,170.993944 L184.575866,133.497264 C184.575866,131.136362 185.538739,128.916473 187.287687,127.246749 L198.522693,116.520668 C198.573046,116.975756 198.607734,117.433515 198.607734,117.897683 L198.607734,170.99341 C198.607734,173.205821 200.486483,175 202.803867,175 C205.121251,175 207,173.205821 207,170.99341 L207,117.898217 C206.998322,109.555473 201.838757,101.974947 193.853236,98.5868925 Z M144.498881,105.384368 L128.899897,90.4914553 C130.086004,88.5861752 130.755707,86.3817763 130.755707,84.0758907 L130.755707,82.4456931 C134.987087,84.1431925 139.630248,85.0838143 144.499441,85.0838143 C149.368633,85.0838143 154.011234,84.1437266 158.242055,82.4462273 L158.242055,84.0758907 C158.242055,86.3823105 158.911758,88.5861752 160.098424,90.4919894 L144.498881,105.384368 Z M144.499441,77.0711689 C129.502462,77.0711689 117.301226,65.4231616 117.301226,51.1055187 L117.301226,49.303862 C119.919613,48.3130309 122.475338,46.7362474 124.921963,44.5809895 C126.624474,43.0805881 126.731336,40.5460902 125.159184,38.9201658 C123.587593,37.2947755 120.933399,37.1927546 119.229769,38.693156 C117.131143,40.5428854 115.034196,41.7377583 112.998792,42.245192 C112.949557,42.2574772 112.91319,42.2628186 112.887454,42.2649552 C112.857242,42.2088704 112.8164,42.0913594 112.8164,41.9028077 L112.8164,33.9788297 C112.8164,19.6611869 125.017635,8.0126454 140.014614,8.0126454 L148.984267,8.0126454 C163.981806,8.0126454 176.182481,19.6611869 176.182481,33.9788297 L176.182481,34.8521498 C176.182481,34.981946 176.100797,35.0946497 175.993376,35.1149471 C150.866373,39.8527755 138.263428,30.9235446 134.011346,26.8640749 C132.372617,25.2995767 129.715625,25.2995767 128.077455,26.8640749 C126.438725,28.4285732 126.438725,30.9652076 128.077455,32.5291717 C141.107846,44.9693098 160.121923,45.1936489 171.697655,43.865775 L171.697655,51.1049846 C171.697655,65.4226274 159.496419,77.0711689 144.499441,77.0711689 Z" id="Shape" fill="#064B76"></path>
                <path d="M76,77.3373276 L76,68.8195855 C76,58.4261873 70.2860354,49.2768521 61.6763136,44.0116285 C62.2079236,42.399446 62.4855296,40.7107711 62.4855296,39.0125346 C62.4855296,29.7718336 54.5327339,22.2543353 44.7569542,22.2543353 C34.9811745,22.2543353 27.0283788,29.7723648 27.0283788,39.0125346 C27.0283788,40.732019 27.303737,42.4042268 27.8364709,44.0126909 C19.227311,49.2773833 13.5139084,58.4267184 13.5139084,68.8195855 L13.5139084,77.335734 C13.5139084,87.4003214 18.8710312,96.2999941 27.0278168,101.634273 L27.0278168,110.395303 C27.0278168,112.123287 26.012363,113.676507 24.3776342,114.449398 L9.7999438,121.339022 C3.75498736,124.196861 0,129.940162 0,136.328867 L0,171.015492 C0,173.21571 1.88704692,175 4.21466704,175 C6.54228716,175 8.42933408,173.21571 8.42933408,171.015492 L8.42933408,138.052069 L15.2953077,144.542233 C17.0514189,146.202754 18.0191065,148.409877 18.0191065,150.758299 L18.0191065,171.015492 C18.0191065,173.21571 19.9061534,175 22.2337735,175 C24.5613936,175 26.4484406,173.21571 26.4484406,171.015492 L26.4484406,150.758299 C26.4484406,146.281903 24.6041023,142.073761 21.2559708,138.908359 L11.6999157,129.875356 C11.6538353,129.831798 11.6043833,129.794083 11.557179,129.75318 C12.1567856,129.252793 12.8294465,128.817211 13.570104,128.466622 L28.1477943,121.576998 C28.8946333,121.223752 29.5897724,120.806762 30.2377072,120.343559 L40.5422872,130.084647 L40.5422872,171.016023 C40.5422872,173.216241 42.4293341,175 44.7569542,175 C47.0845743,175 48.9716212,173.216241 48.9716212,171.016023 L48.9716212,130.084116 L59.2767631,120.343028 C59.9252599,120.806762 60.619837,121.223752 61.366676,121.576467 L65.3863445,123.476558 C65.9915707,123.762873 66.6344479,123.898328 67.2683338,123.898328 C68.8142737,123.898328 70.3028941,123.090909 71.0413037,121.695455 C72.0826075,119.72737 71.2385502,117.334328 69.1565046,116.350552 L65.1368362,114.45046 C63.5015454,113.677569 62.4860916,112.124349 62.4860916,110.396897 L62.4860916,101.635867 C70.6428772,96.3015877 76,87.4013838 76,77.3373276 Z M44.7569542,30.2222886 C49.8847991,30.2222886 54.0561956,34.1658942 54.0561956,39.0125346 C54.0561956,39.5463875 54.0056196,40.0696164 53.9089632,40.5822214 C51.012644,39.741868 47.9404327,39.2866322 44.7569542,39.2866322 C41.5779713,39.2866322 38.5096937,39.7402744 35.6178702,40.5785031 C35.5206519,40.0658981 35.4577128,39.5453251 35.4577128,39.0125346 C35.4577128,34.165363 39.6291093,30.2222886 44.7569542,30.2222886 Z M44.7569542,47.2551167 C57.3363304,47.2551167 67.5706659,56.9292744 67.5706659,68.8201167 L67.5706659,70.2639099 C50.0236021,75.3421521 39.5661703,62.7246325 39.1194156,62.1716565 C38.3860635,61.2479051 37.2649621,60.6699629 36.0466423,60.5881586 C34.8283226,60.5074167 33.6313571,60.9286558 32.7676314,61.7451054 C28.7445912,65.5479439 24.8041585,67.3821668 21.9584153,68.267672 C22.2703006,56.631273 32.3737005,47.2551167 44.7569542,47.2551167 Z M44.7569542,122.799282 L35.0177016,113.593109 C35.3020511,112.565774 35.4577128,111.494881 35.4577128,110.395835 L35.4577128,105.532727 C38.3961787,106.400703 41.5200899,106.868687 44.7569542,106.868687 C47.9938185,106.868687 51.1177297,106.400703 54.0561956,105.532727 L54.0561956,110.395835 C54.0561956,111.494881 54.2118573,112.566305 54.4962068,113.593109 L44.7569542,122.799282 Z M44.7569542,98.900734 C32.177578,98.900734 21.9432425,89.2265763 21.9432425,77.335734 L21.9432425,76.5102541 C25.304299,75.7803895 30.2877213,74.0842779 35.4863726,70.132173 C37.3256533,71.772509 39.9544816,73.7846828 43.3020511,75.5105415 C47.2615903,77.5519312 52.7299803,79.4403361 59.4093847,79.4403361 C61.9477381,79.4403361 64.6636696,79.1614577 67.5347008,78.5208343 C66.8811464,89.8629502 56.9154257,98.900734 44.7569542,98.900734 Z" id="Shape" fill="#075686"></path>
                <path d="M277.316897,112.640536 L254.009817,101.459519 C252.394485,100.684354 251.391081,99.126566 251.391081,97.3940331 L251.391081,91.7313356 C256.84678,87.0840771 260.29345,80.3116422 260.29345,72.7784271 L260.29345,68.2302619 C260.389514,68.2302619 260.483913,68.2329257 260.579978,68.2329257 C262.879979,68.2329257 264.744634,66.4439203 264.744634,64.2372317 L264.744634,55.6960362 C264.744634,41.7185659 252.892023,30.3468208 238.323501,30.3468208 L229.421133,30.3468208 C214.852611,30.3468208 203,41.7185659 203,55.6960362 L203,64.2372317 C203,66.4439203 204.864655,68.2329257 207.164656,68.2329257 C207.199084,68.2329257 207.299036,68.2318601 207.451184,68.2259998 L207.451184,72.7784271 C207.451184,80.312175 210.898409,87.0846099 216.354108,91.7318684 L216.354108,97.3945659 C216.354108,99.1276316 215.350704,100.685419 213.734817,101.460051 C211.677477,102.446721 210.843435,104.846802 211.872383,106.820674 C212.602031,108.220766 214.072987,109.03056 215.600583,109.03056 C216.226392,109.03056 216.861641,108.894706 217.459685,108.608081 C218.197663,108.253797 218.884553,107.835581 219.5248,107.371015 L229.707661,117.140753 L229.707661,171.004306 C229.707661,173.210995 231.572316,175 233.872317,175 C236.172318,175 238.036973,173.210995 238.036973,171.004306 L238.036973,117.139687 L248.219279,107.369949 C248.860081,107.835048 249.546416,108.253264 250.284393,108.607016 L272.837393,119.42629 L265.996807,125.98935 C262.688404,129.164062 260.865951,133.384581 260.865951,137.874143 L260.865951,171.00324 C260.865951,173.209929 262.730606,175 265.030607,175 C267.330608,175 269.195263,173.209929 269.195263,171.00324 L269.195263,137.874143 C269.195263,135.519347 270.150913,133.3052 271.886741,131.639794 L278.366391,125.423027 C278.562962,126.145982 278.670688,126.899836 278.670688,127.673402 L278.670688,171.00324 C278.670688,173.209929 280.535343,175 282.835344,175 C285.135345,175 287,173.209929 287,171.00324 L287,127.673402 C287,121.26644 283.290124,115.506248 277.316897,112.640536 Z M211.328757,59.4194902 L211.328757,55.6955035 L211.329312,55.6955035 C211.329312,46.1244845 219.445393,38.337676 229.421133,38.337676 L238.323501,38.337676 C248.29924,38.337676 256.415322,46.1244845 256.415322,55.6955035 L256.415322,60.1339203 C238.311285,59.1967969 227.386004,52.437681 227.279944,52.3710861 C226.575284,51.9203718 225.771228,51.6998095 224.971059,51.6998095 C223.896022,51.6998095 222.82987,52.0983133 222.024704,52.8702814 C218.039961,56.6933614 214.135735,58.5335117 211.328757,59.4194902 Z M233.872317,109.83396 L224.24863,100.600711 C224.529605,99.5703545 224.68342,98.4963119 224.68342,97.3940331 L224.68342,96.5432167 C227.546482,97.5655816 230.64221,98.1271098 233.872317,98.1271098 C237.102424,98.1271098 240.198152,97.5655816 243.061214,96.5432167 L243.061214,97.3940331 C243.061214,98.4963119 243.214473,99.5703545 243.496004,100.600711 L233.872317,109.83396 Z M233.872317,90.1362546 C223.896578,90.1362546 215.780496,82.3499789 215.780496,72.7784271 L215.780496,66.3368357 L215.780496,66.3368357 C218.697421,65.2185741 222.09578,63.4407567 225.554111,60.6139364 C229.927555,62.7971836 239.077582,66.570717 251.964138,67.8173735 L251.964138,72.7784271 C251.964138,82.3494461 243.848056,90.1362546 233.872317,90.1362546 Z" id="Shape" fill="#064B76"></path>
            </g>
        </g>
    </g>
</svg>