<?xml version="1.0" encoding="UTF-8"?>
<svg width="46px" height="48px" viewBox="0 0 46 48" version="1.1" xmlns="http://www.w3.org/2000/svg" xmlns:xlink="http://www.w3.org/1999/xlink">
    <!-- Generator: Sketch 58 (84663) - https://sketch.com -->
    <title>search</title>
    <desc>Created with Sketch.</desc>
    <g id="Page-1" stroke="none" stroke-width="1" fill="none" fill-rule="evenodd">
        <g id="Desktop-HD" transform="translate(-135.000000, -3362.000000)" fill="#FFFFFF" fill-rule="nonzero">
            <g id="search" transform="translate(135.000000, 3362.000000)">
                <path d="M45.3006001,43.7203946 L33.9608133,31.838781 C36.8764717,28.347014 38.4739782,23.9536566 38.4739782,19.379981 C38.4739782,8.69402802 29.8440976,0 19.2369891,0 C8.62988059,0 0,8.69402802 0,19.379981 C0,30.0659341 8.62988059,38.7599621 19.2369891,38.7599621 C23.2190458,38.7599621 27.013751,37.5499772 30.2581111,35.2530281 L41.6840462,47.2248008 C42.1616254,47.7244672 42.8039735,48 43.4923232,48 C44.1438716,48 44.7619645,47.7497455 45.2311797,47.2947372 C46.2281576,46.328266 46.2599404,44.7256258 45.3006001,43.7203946 Z M19.2369891,5.05564723 C27.0773167,5.05564723 33.4556332,11.4813749 33.4556332,19.379981 C33.4556332,27.2785872 27.0773167,33.7043149 19.2369891,33.7043149 C11.3966615,33.7043149 5.01834498,27.2785872 5.01834498,19.379981 C5.01834498,11.4813749 11.3966615,5.05564723 19.2369891,5.05564723 Z" id="Shape"></path>
            </g>
        </g>
    </g>
</svg>