<?xml version="1.0" encoding="UTF-8"?>
<svg width="30px" height="32px" viewBox="0 0 30 32" version="1.1" xmlns="http://www.w3.org/2000/svg" xmlns:xlink="http://www.w3.org/1999/xlink">
    <!-- Generator: Sketch 58 (84663) - https://sketch.com -->
    <title>search</title>
    <desc>Created with Sketch.</desc>
    <g id="Page-1" stroke="none" stroke-width="1" fill="none" fill-rule="evenodd">
        <g id="Desktop-HD" transform="translate(-1371.000000, -23.000000)" fill="#064B76" fill-rule="nonzero" stroke="#064B76" stroke-width="2">
            <g id="search" transform="translate(1372.000000, 24.000000)">
                <path d="M27.5742784,27.3252466 L20.6717994,19.8992381 C22.446548,17.7168838 23.4189432,14.9710354 23.4189432,12.1124882 C23.4189432,5.43376751 18.1659725,0 11.7094716,0 C5.25297079,0 0,5.43376751 0,12.1124882 C0,18.7912088 5.25297079,24.2249763 11.7094716,24.2249763 C14.1333323,24.2249763 16.4431528,23.4687357 18.4179806,22.0331426 L25.3728977,29.5155005 C25.663598,29.827792 26.0545926,30 26.473588,30 C26.8701827,30 27.2464131,29.8435909 27.5320224,29.5592108 C28.1388785,28.9551662 28.1582246,27.9535161 27.5742784,27.3252466 Z M11.7094716,3.15977952 C16.481845,3.15977952 20.3642985,7.17585928 20.3642985,12.1124882 C20.3642985,17.049117 16.481845,21.0651968 11.7094716,21.0651968 C6.93709828,21.0651968 3.05464477,17.049117 3.05464477,12.1124882 C3.05464477,7.17585928 6.93709828,3.15977952 11.7094716,3.15977952 Z" id="Shape"></path>
            </g>
        </g>
    </g>
</svg>